<svg height="282pt" viewBox="0 0 764.8 282" width="765pt" xmlns="http://www.w3.org/2000/svg"><g transform="translate(4 278)"><path d="m-4 4v-282h764.8v282z" fill="#fff"/><text font-family="Times,serif" font-size="14" text-anchor="middle" x="378.4" y="-7.2">FullAdder</text><path d="m81.25-38.04v-14.92l-23.8-10.54h-33.65l-23.8 10.54v14.92l23.8 10.54h33.65z" fill="none" stroke="#000"/><text font-family="Times,serif" font-size="14" text-anchor="middle" x="40.62" y="-40.45">carryIn</text><path d="m117.25-53v-49h93.75v49z" fill="none" stroke="#000"/><text font-family="Times,serif" font-size="14" text-anchor="middle" x="130.12" y="-84.7">A</text><path d="m117.25-77.5h25.75" fill="none" stroke="#000"/><text font-family="Times,serif" font-size="14" text-anchor="middle" x="130.12" y="-60.2">B</text><path d="m143-53v-49" fill="none" stroke="#000"/><text font-family="Times,serif" font-size="14" text-anchor="middle" x="164.12" y="-80.7">$26</text><text font-family="Times,serif" font-size="14" text-anchor="middle" x="164.12" y="-64.2">$and</text><path d="m185.25-53v-49" fill="none" stroke="#000"/><text font-family="Times,serif" font-size="14" text-anchor="middle" x="198.12" y="-72.7">Y</text><path d="m81.25-45.5c13.54 0 16.76-10.88 24.98-16.49" fill="none" stroke="#000"/><path d="m105.22-65.34 10.58.52-8.6 6.19z" stroke="#000"/><path d="m534-70v-49h92.25v49z" fill="none" stroke="#000"/><text font-family="Times,serif" font-size="14" text-anchor="middle" x="546.87" y="-101.7">A</text><path d="m534-94.5h25.75" fill="none" stroke="#000"/><text font-family="Times,serif" font-size="14" text-anchor="middle" x="546.87" y="-77.2">B</text><path d="m559.75-70v-49" fill="none" stroke="#000"/><text font-family="Times,serif" font-size="14" text-anchor="middle" x="580.12" y="-97.7">$23</text><text font-family="Times,serif" font-size="14" text-anchor="middle" x="580.12" y="-81.2">$xor</text><path d="m600.5-70v-49" fill="none" stroke="#000"/><text font-family="Times,serif" font-size="14" text-anchor="middle" x="613.37" y="-89.7">Y</text><path d="m81.25-45.5c43.8 0 152.2 21 196 21h96.25c57.85 0 71.19-15.52 124.5-38 12.48-5.26 16.21-13.59 24.77-17.54" fill="none" stroke="#000"/><path d="m522.03-83.46 10.48 1.5-9.13 5.37z" stroke="#000"/><path d="m756.8-220.04v-14.92l-27.7-10.54h-39.16l-27.69 10.54v14.92l27.69 10.54h39.16z" fill="none" stroke="#000"/><text font-family="Times,serif" font-size="14" text-anchor="middle" x="709.52" y="-222.45">carryOut</text><path d="m67.62-224.04v-14.92l-15.81-10.54h-22.37l-15.82 10.54v14.92l15.82 10.54h22.37z" fill="none" stroke="#000"/><text font-family="Times,serif" font-size="14" text-anchor="middle" x="40.62" y="-226.45">in1</text><path d="m117.25-137v-49h93.75v49z" fill="none" stroke="#000"/><text font-family="Times,serif" font-size="14" text-anchor="middle" x="130.12" y="-168.7">A</text><path d="m117.25-161.5h25.75" fill="none" stroke="#000"/><text font-family="Times,serif" font-size="14" text-anchor="middle" x="130.12" y="-144.2">B</text><path d="m143-137v-49" fill="none" stroke="#000"/><text font-family="Times,serif" font-size="14" text-anchor="middle" x="164.12" y="-164.7">$25</text><text font-family="Times,serif" font-size="14" text-anchor="middle" x="164.12" y="-148.2">$and</text><path d="m185.25-137v-49" fill="none" stroke="#000"/><text font-family="Times,serif" font-size="14" text-anchor="middle" x="198.12" y="-156.7">Y</text><path d="m68.88-231.5c29.03 0 18.91 43.43 37.54 54.96" fill="none" stroke="#000"/><path d="m106.97-180.01 8.81 5.88-10.55.9z" stroke="#000"/><path d="m118-205v-49h92.25v49z" fill="none" stroke="#000"/><text font-family="Times,serif" font-size="14" text-anchor="middle" x="130.87" y="-236.7">A</text><path d="m118-229.5h25.75" fill="none" stroke="#000"/><text font-family="Times,serif" font-size="14" text-anchor="middle" x="130.87" y="-212.2">B</text><path d="m143.75-205v-49" fill="none" stroke="#000"/><text font-family="Times,serif" font-size="14" text-anchor="middle" x="164.12" y="-232.7">$24</text><text font-family="Times,serif" font-size="14" text-anchor="middle" x="164.12" y="-216.2">$xor</text><path d="m184.5-205v-49" fill="none" stroke="#000"/><text font-family="Times,serif" font-size="14" text-anchor="middle" x="197.37" y="-224.7">Y</text><path d="m68.88-231.5c17.68 0 24-6.64 37.24-9.23" fill="none" stroke="#000"/><path d="m105.46-244.18 10.28 2.57-9.64 4.4z" stroke="#000"/><path d="m67.62-151.04v-14.92l-15.81-10.54h-22.37l-15.82 10.54v14.92l15.82 10.54h22.37z" fill="none" stroke="#000"/><text font-family="Times,serif" font-size="14" text-anchor="middle" x="40.62" y="-153.45">in2</text><path d="m68.88-158.5c17.61 0 24.03 5.99 37.27 8.33" fill="none" stroke="#000"/><path d="m106.07-153.69 9.67 4.31-10.25 2.67z" stroke="#000"/><path d="m68.88-158.5c29.33 0 18.73-44.18 37.45-55.92" fill="none" stroke="#000"/><path d="m105.23-217.74 10.55.87-8.79 5.9z" stroke="#000"/><path d="m738.51-87.04v-14.92l-16.98-10.54h-24.02l-16.98 10.54v14.92l16.98 10.54h24.02z" fill="none" stroke="#000"/><text font-family="Times,serif" font-size="14" text-anchor="middle" x="709.52" y="-89.45">sum</text><path d="m372.5-183.5-27 18 27 18 27-18z" fill="none" stroke="#000"/><text font-family="Times,serif" font-size="14" text-anchor="middle" x="372.5" y="-160.45">w</text><path d="m447.5-72.5h38.5c6 0 12-6 12-12v-12c0-6-6-12-12-12h-38.5c-6 0-12 6-12 12v12c0 6 6 12 12 12" fill="none" stroke="#000"/><text font-family="Times,serif" font-size="14" text-anchor="middle" x="466.75" y="-85.7">0:0 - 0:0</text><path d="m399.5-165.5c32.27 0 7.4 57.23 25.38 71.54" fill="none" stroke="#000"/><path d="m425.49-97.43 8.56 6.24-10.58.46z" stroke="#000"/><path d="m447.5-237.5h38.5c6 0 12-6 12-12v-12c0-6-6-12-12-12h-38.5c-6 0-12 6-12 12v12c0 6 6 12 12 12" fill="none" stroke="#000"/><text font-family="Times,serif" font-size="14" text-anchor="middle" x="466.75" y="-250.7">2:2 - 0:0</text><path d="m399.5-165.5c38.46 0 2.71-71.59 24.94-87.25" fill="none" stroke="#000"/><path d="m423.47-256.11 10.57.76-8.73 6z" stroke="#000"/><path d="m447.5-182.5h38.5c6 0 12-6 12-12v-12c0-6-6-12-12-12h-38.5c-6 0-12 6-12 12v12c0 6 6 12 12 12" fill="none" stroke="#000"/><text font-family="Times,serif" font-size="14" text-anchor="middle" x="466.75" y="-195.7">1:1 - 0:0</text><path d="m399.5-165.5c17.67 0 15.93-21.95 25.41-31.21" fill="none" stroke="#000"/><path d="m423.5-199.91 10.59-.3-8.1 6.84z" stroke="#000"/><path d="m447.5-127.5h38.5c6 0 12-6 12-12v-12c0-6-6-12-12-12h-38.5c-6 0-12 6-12 12v12c0 6 6 12 12 12" fill="none" stroke="#000"/><text font-family="Times,serif" font-size="14" text-anchor="middle" x="466.75" y="-140.7">0:0 - 0:0</text><path d="m399.5-165.5c13.54 0 16.76 10.88 24.98 16.49" fill="none" stroke="#000"/><path d="m425.45-152.37 8.6 6.19-10.58.52z" stroke="#000"/><path d="m259-147.5h38.5c6 0 12-6 12-12v-12c0-6-6-12-12-12h-38.5c-6 0-12 6-12 12v12c0 6 6 12 12 12" fill="none" stroke="#000"/><text font-family="Times,serif" font-size="14" text-anchor="middle" x="278.25" y="-160.7">0:0 - 1:1</text><path d="m223.74-162.7c3.59-.55 6.7-1.25 10.27-1.81" fill="none" stroke="#000"/><path d="m223.87-162.71-6.28-3.54-5.69 4.43 6.28 3.55z" fill="none" stroke="#000"/><path d="m234.14-164.52 6.28 3.53 5.68-4.44-6.28-3.54z" fill="none" stroke="#000"/><path d="m309.5-165.75c11.38 0 16.68.13 24.55.2" fill="none" stroke="#000"/><path d="m334-169.05 9.99 3.54-10.02 3.46z" stroke="#000"/><path d="m259-53.5h38.5c6 0 12-6 12-12v-12c0-6-6-12-12-12h-38.5c-6 0-12 6-12 12v12c0 6 6 12 12 12" fill="none" stroke="#000"/><text font-family="Times,serif" font-size="14" text-anchor="middle" x="278.25" y="-66.7">0:0 - 2:2</text><path d="m223.78-76.17c3.68.95 6.84 2.16 10.53 3.12" fill="none" stroke="#000"/><path d="m223.8-76.17-5.46-4.7-6.45 3.23 5.47 4.71z" fill="none" stroke="#000"/><path d="m234.19-73.07 5.47 4.7 6.45-3.24-5.47-4.7z" fill="none" stroke="#000"/><path d="m502.2-102.96c-1.05-2.29-2.52-4.45-4.2-6.04-20.17-19.1-34.72-.28-62.5 0-67 .68-246.47-37.66-309.79 10.4" fill="none" stroke="#000"/><path d="m502.21-103-5.37 4.82 2.38 6.81 5.37-4.82z" fill="none" stroke="#000"/><path d="m125.67-98.57-7.12 1.18-1.64 7.02 7.11-1.18z" fill="none" stroke="#000"/><path d="m309.5-71.75c39.93 0 1.51-75.02 24.92-90.84" fill="none" stroke="#000"/><path d="m333.48-165.96 10.56.84-8.79 5.93z" stroke="#000"/><path d="m536.25-203v-49h87.75v49z" fill="none" stroke="#000"/><text font-family="Times,serif" font-size="14" text-anchor="middle" x="549.12" y="-234.7">A</text><path d="m536.25-227.5h25.75" fill="none" stroke="#000"/><text font-family="Times,serif" font-size="14" text-anchor="middle" x="549.12" y="-210.2">B</text><path d="m562-203v-49" fill="none" stroke="#000"/><text font-family="Times,serif" font-size="14" text-anchor="middle" x="580.12" y="-230.7">$27</text><text font-family="Times,serif" font-size="14" text-anchor="middle" x="580.12" y="-214.2">$or</text><path d="m598.25-203v-49" fill="none" stroke="#000"/><text font-family="Times,serif" font-size="14" text-anchor="middle" x="611.12" y="-222.7">Y</text><g stroke="#000"><path d="m625-227.75c12.03 0 17.5.13 25.95.2" fill="none"/><path d="m650.75-231.05 9.99 3.54-10.02 3.46z"/><path d="m510.47-252.16c4.48 2.67 7.84 6.4 12.32 9.07" fill="none"/><path d="m510.46-252.16-4.76-5.42-6.83 2.31 4.76 5.42z" fill="none"/><path d="m522.79-243.09 4.76 5.42 6.83-2.31-4.76-5.42z" fill="none"/><path d="m510.43-203.63c4.49-2.5 7.9-5.99 12.4-8.5" fill="none"/><path d="m510.51-203.65-6.79-2.41-4.85 5.34 6.8 2.41z" fill="none"/><path d="m522.74-212.1 6.79 2.41 4.85-5.34-6.8-2.42z" fill="none"/><path d="m626.25-94.75c19.33 0 26.76.17 41.82.23" fill="none"/><path d="m667.75-98.02 10 3.52-10.01 3.48z"/><path d="m509.73-140.11c5.98 7.48 6.65 20.94 12.78 28.26" fill="none"/><path d="m509.72-140.11-3.78-6.14-7.12 1.13 3.78 6.14z" fill="none"/><path d="m522.21-111.98 3.86 6.09 7.11-1.23-3.87-6.08z" fill="none"/><path d="m259-208.5h38.5c6 0 12-6 12-12v-12c0-6-6-12-12-12h-38.5c-6 0-12 6-12 12v12c0 6 6 12 12 12" fill="none"/></g><text font-family="Times,serif" font-size="14" text-anchor="middle" x="278.25" y="-221.7">0:0 - 0:0</text><path d="m223.74-228.93c3.59.48 6.7 1.09 10.27 1.58" fill="none" stroke="#000"/><path d="m223.87-228.92-5.73-4.38-6.24 3.61 5.73 4.38z" fill="none" stroke="#000"/><path d="m234.13-227.35 5.72 4.39 6.25-3.6-5.72-4.38z" fill="none" stroke="#000"/><path d="m309.5-226.75c26.89 0 11.19 44.42 25.44 57.6" fill="none" stroke="#000"/><path d="m335.76-172.57 8.31 6.58-10.6.04z" stroke="#000"/></g></svg>